<svg width="407.4250244140625px" height="118.39999999999999px" xmlns="http://www.w3.org/2000/svg" viewBox="46.28748779296876 15.800000000000004 407.4250244140625 118.39999999999999" style="background: rgba(0, 0, 0, 0);" preserveAspectRatio="xMidYMid"><defs><filter id="editing-vr"><feFlood flood-color="#00b3ff" flood-opacity="0.7" result="c1"></feFlood><feFlood flood-color="#59fff3" flood-opacity="0.7" result="c3"></feFlood><feComposite operator="in" in="c1" in2="SourceAlpha" result="text-c1"></feComposite><feComposite operator="in" in="c3" in2="SourceAlpha" result="text-c3"></feComposite><feOffset in="text-c1" dx="5" dy="-1" result="text1"></feOffset><feOffset in="text-c3" dx="-5" dy="1" result="text3"></feOffset><feBlend in="SourceGraphic" in2="text1" mode="multiply" result="text4"></feBlend><feBlend in="text4" in2="text3" mode="multiply"></feBlend></filter></defs><g filter="url(#editing-vr)"><g transform="translate(110.44997799396515, 99.1534652709961)"><path d="M36.48-1.28L36.48-1.28Q36.80-0.64 36.80-0.45L36.80-0.45L36.80-0.45Q36.80 0.06 35.65 0.06L35.65 0.06L31.04 0.06L31.04 0.06Q30.78 0.06 30.53-0.38L30.53-0.38L30.53-0.38Q30.27-0.83 30.08-1.28L30.08-1.28L30.08-1.28Q29.89-1.73 29.76-2.05L29.76-2.05L29.76-2.05Q29.44-2.69 28.58-4.99L28.58-4.99L28.58-4.99Q27.71-7.30 27.26-8.64L27.26-8.64L27.26-8.64Q27.07-9.28 26.50-10.53L26.50-10.53L26.50-10.53Q25.92-11.78 25.66-12.29L25.66-12.29L25.66-12.29Q25.41-13.06 25.18-13.31L25.18-13.31L25.18-13.31Q24.96-13.57 24.51-13.57L24.51-13.57L24.51-13.57Q24.06-13.57 23.39-13.50L23.39-13.50L23.39-13.50Q22.72-13.44 21.95-13.38L21.95-13.38L21.95-13.38Q21.44-13.25 18.75-13.25L18.75-13.25L18.75-13.25Q16.90-13.25 15.10-13.12L15.10-13.12L15.10-13.12Q14.53-13.06 13.06-13.06L13.06-13.06L9.66-13.12L9.66-13.12Q9.34-13.12 9.18-12.86L9.18-12.86L9.18-12.86Q9.02-12.61 8.96-12.26L8.96-12.26L8.96-12.26Q8.90-11.90 8.83-11.71L8.83-11.71L8.45-10.11L8.45-10.11Q8.26-9.22 7.97-8.03L7.97-8.03L7.97-8.03Q7.68-6.85 7.49-5.82L7.49-5.82L6.78-3.07L6.27-1.22L6.27-1.22Q6.08-0.45 5.92-0.22L5.92-0.22L5.92-0.22Q5.76 0 5.44 0L5.44 0L1.66 0L1.66 0Q1.34 0 1.34-0.26L1.34-0.26L1.34-0.26Q1.34-0.38 1.60-1.15L1.60-1.15L1.60-1.15Q2.11-2.37 2.50-3.58L2.50-3.58L2.50-3.58Q4.86-11.52 5.31-13.95L5.31-13.95L5.31-13.95Q5.89-17.15 7.68-22.21L7.68-22.21L7.68-22.21Q8.26-24.38 8.77-26.18L8.77-26.18L8.77-26.18Q8.96-27.07 9.34-28.35L9.34-28.35L9.34-28.35Q10.56-32.83 11.78-36.74L11.78-36.74L13.38-41.86L13.38-41.86Q13.89-43.84 14.66-45.95L14.66-45.95L14.66-45.95Q15.04-46.91 15.55-46.40L15.55-46.40L15.55-46.40Q15.94-46.14 16.13-45.50L16.13-45.50L16.13-45.50Q16.32-44.86 16.38-44.61L16.38-44.61L16.38-44.61Q16.58-43.84 19.78-36.93L19.78-36.93L19.78-36.93Q21.06-34.30 22.53-30.08L22.53-30.08L22.53-30.08Q23.17-28.22 26.05-22.08L26.05-22.08L26.05-22.08Q27.52-19.07 27.97-17.92L27.97-17.92L27.97-17.92Q28.99-15.68 33.47-7.04L33.47-7.04L34.24-5.44L34.24-5.44Q35.71-2.18 36.48-1.28L36.48-1.28ZM19.71-22.40L19.71-22.40Q20.16-22.46 20.48-22.46L20.48-22.46L20.48-22.46Q20.80-22.46 20.99-22.53L20.99-22.53L20.99-22.53Q21.18-22.59 21.18-22.72L21.18-22.72L21.18-22.72Q21.18-22.85 20.99-23.23L20.99-23.23L20.99-23.23Q20.67-23.81 19.52-26.46L19.52-26.46L19.52-26.46Q18.37-29.12 17.92-30.46L17.92-30.46L17.92-30.46Q17.28-32 16.93-33.02L16.93-33.02L16.93-33.02Q16.58-34.05 16.38-34.43L16.38-34.43L16.38-34.43Q16.26-34.75 16.10-35.07L16.10-35.07L16.10-35.07Q15.94-35.39 15.81-35.58L15.81-35.58L15.81-35.58Q15.68-35.78 15.55-35.78L15.55-35.78L15.55-35.78Q15.36-35.78 15.14-34.82L15.14-34.82L15.14-34.82Q14.91-33.86 14.78-33.34L14.78-33.34L14.78-33.34Q13.63-29.63 13.12-27.71L13.12-27.71L13.12-27.71Q12.86-26.75 12.38-25.38L12.38-25.38L12.38-25.38Q11.90-24 11.71-23.49L11.71-23.49L11.71-23.49Q11.52-22.85 11.52-22.46L11.52-22.46L11.52-22.46Q11.52-22.08 12.10-22.08L12.10-22.08L12.10-22.08Q13.44-22.08 16.22-22.18L16.22-22.18L16.22-22.18Q19.01-22.27 19.71-22.40L19.71-22.40ZM46.98-44.29L46.85-40.58L46.85-40.58Q46.53-31.62 46.53-30.85L46.53-30.85L46.46-21.70L46.46-21.70Q46.46-20.48 46.53-19.58L46.53-19.58L46.59-15.74L46.59-15.74Q46.59-14.40 46.53-14.08L46.53-14.08L46.53-14.08Q46.46-13.70 46.50-13.38L46.50-13.38L46.50-13.38Q46.53-13.06 46.53-12.93L46.53-12.93L46.53-12.93Q46.53-12.67 46.59-12.61L46.59-12.61L48.13-12.48L48.13-12.48Q50.18-12.35 51.52-12.42L51.52-12.42L63.36-12.54L63.36-12.54Q63.36-12.54 70.08-12.35L70.08-12.35L73.09-12.29L73.09-12.29Q73.79-12.22 73.79-11.90L73.79-11.90L73.79-11.90Q73.79-11.78 73.73-11.58L73.73-11.58L73.73-11.58Q73.66-11.39 73.66-11.20L73.66-11.20L73.66-8.26L73.66-8.26Q73.66-7.10 74.05-3.39L74.05-3.39L74.30-0.70L74.37-0.38L74.37-0.38Q74.37-0.06 74.05 0.03L74.05 0.03L74.05 0.03Q73.73 0.13 72.90 0.13L72.90 0.13L68.22 0.06L60.29-0.06L60.29-0.06Q58.69-0.06 55.81 0.13L55.81 0.13L55.81 0.13Q54.53 0.19 52.96 0.26L52.96 0.26L52.96 0.26Q51.39 0.32 49.86 0.32L49.86 0.32L48.77 0.26L48.77 0.26Q48.38 0.19 47.30 0.19L47.30 0.19L44.42 0.26L44.42 0.26Q43.65 0.32 42.43 0.32L42.43 0.32L42.43 0.32Q41.60 0.32 41.44 0.10L41.44 0.10L41.44 0.10Q41.28-0.13 41.31-0.58L41.31-0.58L41.31-0.58Q41.34-1.02 41.34-1.34L41.34-1.34L41.34-1.34Q41.34-2.75 41.54-6.21L41.54-6.21L41.73-12.80L41.60-15.81L41.60-15.81Q41.54-16.70 41.47-17.95L41.47-17.95L41.47-17.95Q41.41-19.20 41.41-20.54L41.41-20.54L41.41-20.54Q41.41-18.37 41.79-24.93L41.79-24.93L41.79-24.93Q42.18-31.49 42.18-33.02L42.18-33.02L42.11-40.26L41.98-44.35L41.98-44.42L41.98-44.42Q41.98-44.93 42.69-44.93L42.69-44.93L43.58-44.86L43.58-44.86Q43.90-44.86 44.42-44.83L44.42-44.83L44.42-44.83Q44.93-44.80 46.02-44.80L46.02-44.80L46.59-44.80L46.59-44.80Q46.98-44.80 46.98-44.29L46.98-44.29ZM91.97-45.31L91.97-45.31Q96.32-45.31 98.59-43.84L98.59-43.84L98.59-43.84Q100.86-42.37 101.76-41.12L101.76-41.12L101.76-41.12Q102.66-39.87 102.91-39.62L102.91-39.62L102.91-39.62Q103.42-39.04 103.42-38.40L103.42-38.40L103.42-38.40Q103.42-37.63 102.85-37.06L102.85-37.06L102.85-37.06Q102.27-36.48 101.41-35.78L101.41-35.78L101.41-35.78Q100.54-35.07 99.84-34.56L99.84-34.56L99.84-34.56Q99.52-34.37 99.26-34.37L99.26-34.37L99.26-34.37Q98.69-34.37 98.11-34.94L98.11-34.94L98.11-34.94Q97.98-35.07 96.26-37.09L96.26-37.09L96.26-37.09Q94.53-39.10 91.07-39.10L91.07-39.10L91.07-39.10Q88.45-39.10 86.53-36.32L86.53-36.32L86.53-36.32Q84.61-33.54 83.62-29.60L83.62-29.60L83.62-29.60Q82.62-25.66 82.62-22.27L82.62-22.27L82.62-22.27Q82.62-18.75 83.65-14.78L83.65-14.78L83.65-14.78Q84.67-10.82 86.94-8L86.94-8L86.94-8Q89.22-5.18 92.67-5.18L92.67-5.18L92.67-5.18Q97.28-5.18 99.71-8.77L99.71-8.77L99.71-8.77Q100.74-10.43 101.06-12.42L101.06-12.42L99.20-12.42L96.32-12.48L89.86-12.54L89.86-12.54Q88.77-12.54 88.77-13.57L88.77-13.57L88.77-16.06L88.77-16.06Q88.77-16.70 88.96-16.86L88.96-16.86L88.96-16.86Q89.15-17.02 89.47-17.02L89.47-17.02L92.42-17.02L105.54-17.34L105.54-17.34Q106.11-17.34 106.40-16.77L106.40-16.77L106.40-16.77Q106.69-16.19 106.62-15.23L106.62-15.23L106.62-15.23Q106.62-12.99 105.79-9.44L105.79-9.44L105.79-9.44Q104.96-5.89 101.70-2.53L101.70-2.53L101.70-2.53Q98.43 0.83 91.97 0.83L91.97 0.83L91.97 0.83Q87.17 0.83 83.74-2.82L83.74-2.82L83.74-2.82Q80.32-6.46 78.62-12.19L78.62-12.19L78.62-12.19Q76.93-17.92 76.93-23.94L76.93-23.94L76.93-23.94Q76.93-29.57 79.01-34.50L79.01-34.50L79.01-34.50Q81.09-39.42 84.58-42.37L84.58-42.37L84.58-42.37Q88.06-45.31 91.97-45.31L91.97-45.31ZM114.50-45.12L114.50-45.12Q115.33-45.06 116.13-45.09L116.13-45.09L116.13-45.09Q116.93-45.12 117.50-45.12L117.50-45.12L117.50-45.12Q118.91-45.12 119.55-45.06L119.55-45.06L119.55-45.06Q120.32-44.99 120.64-44.74L120.64-44.74L120.64-44.74Q120.96-44.48 120.96-44.03L120.96-44.03L120.96-44.03Q120.96-43.71 120.90-43.33L120.90-43.33L120.90-43.33Q120.83-42.94 120.77-42.62L120.77-42.62L120.77-42.62Q120.06-37.18 120.00-31.42L120.00-31.42L120.00-31.42Q119.94-29.76 119.94-26.30L119.94-26.30L120.00-18.56L120.00-18.56Q120.06-17.60 120.06-16.58L120.06-16.58L120.13-14.02L120.13-14.02Q120.26-10.69 120.26-9.09L120.26-9.09L120.26-9.09Q120.26-7.87 120.19-7.62L120.19-7.62L120.19-7.62Q120.13-7.36 120.13-6.14L120.13-6.14L120.19-2.62L120.19-2.62Q120.26-1.86 120.26-0.70L120.26-0.70L120.26-0.70Q120.32 0.13 119.78 0.35L119.78 0.35L119.78 0.35Q119.23 0.58 118.34 0.51L118.34 0.51L112.51 0.51L112.51 0.51Q111.55 0.58 111.30 0.10L111.30 0.10L111.30 0.10Q111.04-0.38 110.98-1.47L110.98-1.47L110.98-1.47Q110.85-1.92 111.10-3.84L111.10-3.84L111.10-3.84Q111.36-5.63 111.36-6.91L111.36-6.91L111.36-6.91Q111.36-7.36 111.81-15.55L111.81-15.55L111.81-15.55Q112.19-21.57 112.19-22.14L112.19-22.14L112.32-28.42L112.45-34.24L112.58-37.70L112.70-40L112.70-42.69L112.70-42.69Q112.70-45.18 113.98-45.18L113.98-45.18L113.98-45.18Q114.30-45.18 114.50-45.12L114.50-45.12ZM140.54-44.67L140.54-19.07L140.54-19.07Q140.54-17.66 140.70-16.64L140.70-16.64L140.70-16.64Q140.86-15.62 141.66-14.69L141.66-14.69L141.66-14.69Q142.46-13.76 144.26-13.76L144.26-13.76L144.26-13.76Q146.75-13.76 147.65-15.65L147.65-15.65L147.65-15.65Q148.54-17.54 148.54-19.78L148.54-19.78L148.61-22.98L148.61-22.98Q148.80-30.08 148.80-30.91L148.80-30.91L148.80-30.91Q148.80-32.70 148.74-33.34L148.74-33.34L148.74-33.34Q148.74-35.58 148.48-40.19L148.48-40.19L148.35-43.71L148.35-43.71Q148.35-44.86 148.67-45.31L148.67-45.31L148.67-45.31Q148.99-45.76 149.89-45.76L149.89-45.76L158.02-45.76L158.98-45.82L158.98-45.82Q159.62-45.82 160.03-45.44L160.03-45.44L160.03-45.44Q160.45-45.06 160.58-43.90L160.58-43.90L160.58-43.90Q160.70-42.82 160.70-36.35L160.70-36.35L160.64-22.59L160.64-22.59Q160.64-19.01 159.49-13.98L159.49-13.98L159.49-13.98Q158.34-8.96 154.69-4.67L154.69-4.67L154.69-4.67Q151.04-0.38 144.26-0.38L144.26-0.38L144.26-0.38Q129.02-0.38 127.87-14.98L127.87-14.98L127.87-14.98Q127.81-15.62 127.81-17.54L127.81-17.54L127.81-17.54Q127.81-19.52 127.94-24.51L127.94-24.51L127.94-24.51Q128.13-30.27 128.06-33.09L128.06-33.09L128.06-33.09Q128.06-36.93 127.94-41.15L127.94-41.15L127.94-41.15Q127.87-42.37 127.87-43.65L127.87-43.65L127.87-43.65Q127.87-43.90 127.84-44.61L127.84-44.61L127.84-44.61Q127.81-45.31 128.10-45.63L128.10-45.63L128.10-45.63Q128.38-45.95 129.15-45.95L129.15-45.95L132.86-45.89L132.86-45.89Q134.14-45.89 134.72-45.95L134.72-45.95L134.72-45.95Q136.13-46.08 137.02-46.08L137.02-46.08L139.58-46.02L139.58-46.02Q140.16-46.02 140.32-45.73L140.32-45.73L140.32-45.73Q140.48-45.44 140.54-44.67L140.54-44.67ZM172.99-43.14L172.99-43.14Q173.12-41.66 173.60-39.94L173.60-39.94L173.60-39.94Q174.08-38.21 174.98-35.46L174.98-35.46L174.98-35.46Q175.62-33.47 178.27-26.56L178.27-26.56L178.27-26.56Q180.93-19.65 181.82-17.66L181.82-17.66L181.82-17.66Q182.66-15.55 184.06-11.20L184.06-11.20L185.47-6.85L186.30-8.32L188.10-11.84L188.10-11.84Q188.48-12.74 190.46-16.51L190.46-16.51L190.46-16.51Q194.62-24.26 195.90-27.26L195.90-27.26L195.90-27.26Q196.86-29.50 198.66-33.28L198.66-33.28L198.66-33.28Q199.10-34.30 199.78-35.74L199.78-35.74L199.78-35.74Q200.45-37.18 200.70-37.82L200.70-37.82L200.70-37.82Q200.83-38.21 201.50-40.22L201.50-40.22L201.50-40.22Q202.18-42.24 202.85-43.65L202.85-43.65L202.85-43.65Q203.52-45.06 203.97-45.06L203.97-45.06L203.97-45.06Q204.48-45.06 204.48-43.58L204.48-43.58L204.48-43.58Q204.48-42.75 204.42-41.95L204.42-41.95L204.42-41.95Q204.35-41.15 204.29-40.51L204.29-40.51L204.10-38.21L204.10-38.21Q203.90-34.88 203.90-25.92L203.90-25.92L203.90-25.92Q203.90-22.78 203.81-17.95L203.81-17.95L203.81-17.95Q203.71-13.12 203.58-11.46L203.58-11.46L203.52-1.02L203.52-0.83L203.52-0.83Q203.52-0.19 202.82-0.19L202.82-0.19L202.82-0.19Q201.09-0.19 200.58-0.26L200.58-0.26L200.58-0.26Q200.26-0.32 200.26-0.77L200.26-0.77L200.32-1.86L200.32-1.86Q200.32-4.61 200.45-10.85L200.45-10.85L200.45-10.85Q200.58-17.09 200.77-19.14L200.77-19.14L200.77-19.14Q200.83-20.67 200.83-25.60L200.83-25.60L200.83-25.60Q200.83-28.29 200.77-29.70L200.77-29.70L200.77-29.70Q199.42-27.33 199.17-26.75L199.17-26.75L199.17-26.75Q198.66-25.86 197.70-23.94L197.70-23.94L197.70-23.94Q197.50-23.55 197.25-23.04L197.25-23.04L197.25-23.04Q196.99-22.53 196.67-22.02L196.67-22.02L196.67-22.02Q195.84-20.35 192.96-14.53L192.96-14.53L190.91-10.30L190.91-10.30Q190.27-9.22 188.80-6.34L188.80-6.34L188.80-6.34Q187.33-3.46 186.82-2.43L186.82-2.43L185.79-0.38L185.79-0.38Q185.41 0.45 184.86 1.09L184.86 1.09L184.86 1.09Q184.32 1.73 183.94 1.73L183.94 1.73L183.94 1.73Q183.55 1.73 183.39 1.54L183.39 1.54L183.39 1.54Q183.23 1.34 183.10 0.93L183.10 0.93L183.10 0.93Q182.98 0.51 182.91 0.32L182.91 0.32L182.91 0.32Q182.78-0.06 181.50-3.74L181.50-3.74L181.50-3.74Q180.22-7.42 179.52-9.02L179.52-9.02L179.52-9.02Q178.62-11.20 177.22-14.72L177.22-14.72L177.22-14.72Q175.81-18.24 175.36-19.78L175.36-19.78L175.36-19.78Q174.78-21.38 174.34-22.85L174.34-22.85L173.38-25.86L173.38-25.86Q172.16-29.44 171.97-30.14L171.97-30.14L171.84-27.78L171.84-27.78Q171.78-26.43 171.78-23.68L171.78-23.68L171.78-23.68Q171.78-14.59 171.52-11.01L171.52-11.01L171.52-11.01Q171.46-10.11 171.46-7.36L171.46-7.36L171.52-0.90L171.52-0.70L171.52-0.70Q171.52 0.45 170.62 0.32L170.62 0.32L170.62 0.32Q170.30 0.19 169.60 0.19L169.60 0.19L169.60 0.19Q168.90 0.19 168.58 0.19L168.58 0.19L168.58 0.19Q168.26 0.19 168.26-0.26L168.26-0.26L168.32-1.41L168.19-7.55L168.00-20.93L168.00-20.93Q168.00-24.19 168.13-28.77L168.13-28.77L168.13-28.77Q168.26-33.34 168.38-34.94L168.38-34.94L168.38-34.94Q168.58-37.06 168.67-39.58L168.67-39.58L168.67-39.58Q168.77-42.11 168.77-43.71L168.77-43.71L168.77-43.97L168.77-43.97Q168.77-44.80 168.96-44.90L168.96-44.90L168.96-44.90Q169.15-44.99 169.60-44.93L169.60-44.93L170.11-44.93L170.11-44.93Q171.14-44.93 171.71-44.99L171.71-44.99L171.71-44.99Q172.80-44.99 172.99-43.14L172.99-43.14ZM215.74-8.70L215.74-8.70Q220.61-8.70 220.61-3.01L220.61-3.01L220.61-3.01Q220.61-1.47 219.10-0.35L219.10-0.35L219.10-0.35Q217.60 0.77 215.74 0.77L215.74 0.77L215.74 0.77Q213.82 0.77 212.48-0.54L212.48-0.54L212.48-0.54Q211.14-1.86 211.14-4.35L211.14-4.35L211.14-4.35Q211.14-6.91 212.45-7.81L212.45-7.81L212.45-7.81Q213.76-8.70 215.74-8.70L215.74-8.70ZM243.07-44.74L243.07-44.74Q244.22-44.74 244.64-44.38L244.64-44.38L244.64-44.38Q245.06-44.03 245.06-42.94L245.06-42.94L244.93-40.32L244.93-40.32Q244.74-35.90 244.74-35.39L244.74-35.39L244.74-35.39Q244.74-26.24 244.35-20.22L244.35-20.22L244.35-20.22Q244.29-19.39 244.32-18.56L244.32-18.56L244.32-18.56Q244.35-17.73 244.35-17.09L244.35-17.09L244.35-17.09Q244.42-16.13 244.42-13.95L244.42-13.95L244.42-13.95Q244.42-7.55 242.50-3.30L242.50-3.30L242.50-3.30Q240.58 0.96 234.94 0.96L234.94 0.96L234.94 0.96Q230.34 0.96 227.94-1.70L227.94-1.70L227.94-1.70Q225.54-4.35 224.86-7.33L224.86-7.33L224.86-7.33Q224.19-10.30 224.19-12.35L224.19-12.35L224.19-12.35Q224.19-16.70 223.94-21.12L223.94-21.12L223.94-21.12Q223.81-23.55 225.28-23.55L225.28-23.55L225.28-23.55Q225.66-23.55 226.08-23.49L226.08-23.49L226.08-23.49Q226.50-23.42 226.82-23.42L226.82-23.42L226.82-23.42Q227.46-23.36 228.67-23.49L228.67-23.49L230.91-23.55L230.91-23.55Q232.06-23.55 232.32-23.14L232.32-23.14L232.32-23.14Q232.58-22.72 232.54-22.08L232.54-22.08L232.54-22.08Q232.51-21.44 232.51-21.18L232.51-21.18L232.51-21.18Q232.51-20.29 232.58-19.71L232.58-19.71L232.64-17.09L232.64-17.09Q232.64-15.87 232.58-15.23L232.58-15.23L232.58-15.23Q232.51-14.72 232.51-13.57L232.51-13.57L232.51-13.57Q232.51-8.77 234.94-8.77L234.94-8.77L234.94-8.77Q236.54-8.77 236.54-17.41L236.54-17.41L236.54-17.41Q236.54-20.10 236.42-24.32L236.42-24.32L236.42-24.32Q236.29-27.65 236.29-28.48L236.29-28.48L236.22-43.01L236.22-43.01Q236.22-44.03 236.67-44.42L236.67-44.42L236.67-44.42Q237.12-44.80 237.89-44.80L237.89-44.80L239.30-44.74L243.07-44.74ZM265.98-45.12L265.98-45.12Q271.55-45.12 274.24-42.94L274.24-42.94L274.24-42.94Q276.93-40.77 277.06-40.64L277.06-40.64L277.06-40.64Q277.70-40.19 277.70-39.74L277.70-39.74L277.70-39.74Q277.70-39.49 277.44-39.23L277.44-39.23L277.44-39.23Q277.25-38.98 276.67-38.14L276.67-38.14L276.67-38.14Q276.10-37.31 275.78-37.31L275.78-37.31L275.78-37.31Q275.46-37.31 274.94-37.63L274.94-37.63L274.50-38.02L274.50-38.02Q269.63-41.54 266.18-41.54L266.18-41.54L266.18-41.54Q261.76-41.54 259.49-39.52L259.49-39.52L259.49-39.52Q257.22-37.50 257.22-34.43L257.22-34.43L257.22-34.43Q257.22-31.81 259.10-29.95L259.10-29.95L259.10-29.95Q260.99-28.10 264.06-26.43L264.06-26.43L264.06-26.43Q264.96-26.05 265.92-25.73L265.92-25.73L265.92-25.73Q269.12-24.51 271.52-23.14L271.52-23.14L271.52-23.14Q273.92-21.76 275.84-18.98L275.84-18.98L275.84-18.98Q277.76-16.19 277.76-11.97L277.76-11.97L277.76-11.97Q277.76-4.74 272.83-2.08L272.83-2.08L272.83-2.08Q267.90 0.58 261.82 0.58L261.82 0.58L261.82 0.58Q258.30 0.58 255.46-1.02L255.46-1.02L255.46-1.02Q252.61-2.62 251.39-3.84L251.39-3.84L251.39-3.84Q250.75-4.42 251.07-4.99L251.07-4.99L251.07-4.99Q251.14-5.12 251.62-6.02L251.62-6.02L251.62-6.02Q252.10-6.91 252.48-6.91L252.48-6.91L252.61-6.91L252.61-6.91Q252.80-6.91 252.96-6.82L252.96-6.82L252.96-6.82Q253.12-6.72 253.34-6.46L253.34-6.46L253.34-6.46Q253.57-6.21 253.89-5.89L253.89-5.89L253.89-5.89Q254.72-5.06 257.15-4L257.15-4L257.15-4Q259.58-2.94 261.18-2.94L261.18-2.94L261.18-2.94Q264.58-2.94 267.65-4.38L267.65-4.38L267.65-4.38Q270.72-5.82 270.72-10.50L270.72-10.50L270.72-10.50Q270.72-12.48 268.96-13.95L268.96-13.95L268.96-13.95Q267.20-15.42 263.49-17.41L263.49-17.41L260.74-18.94L260.74-18.94Q256.26-21.50 253.73-24.45L253.73-24.45L253.73-24.45Q251.20-27.39 251.20-32.19L251.20-32.19L251.20-32.19Q251.20-36.16 253.47-39.10L253.47-39.10L253.47-39.10Q255.74-42.05 259.17-43.58L259.17-43.58L259.17-43.58Q262.59-45.12 265.98-45.12L265.98-45.12Z" fill="#515151"></path></g></g><style>text {
  font-size: 64px;
  font-family: Arial Black;
  dominant-baseline: central;
  text-anchor: middle;
}</style></svg>